<svg width="1490" height="295" viewBox="0 0 1490 295" fill="none" xmlns="http://www.w3.org/2000/svg">
<path d="M80.0678 190.701C72.7926 172.046 69.8597 113.224 103.696 113.149C108.364 113.138 110.667 113.439 114.454 114.947M50.6032 153.465C74.6549 221.298 107.597 272.971 133.14 266.077C140.16 264.183 143.779 253.696 145.651 240.117M50.6032 153.465C48.6694 148.011 46.7931 142.452 44.9827 136.811C46.9707 142.003 48.8656 147.642 50.6032 153.465ZM50.6032 153.465C59.4265 183.031 64.1962 217.336 56.524 221.919C47.341 227.403 32.4613 183.199 19.5556 152.206C11.6614 128.078 -1.93152 77.1313 6.85005 66.369C15.6316 55.6067 21.5251 62.379 23.3741 67.1105L39.5844 114.854C32.1896 88.4907 21.3183 35.5449 35.594 30.4046C50.0579 25.1966 43.1617 27.7292 57.2798 22.8113C65.5886 19.917 64.1075 24.4723 64.8535 36.2997C65.5994 48.127 63.3117 95.8507 64.4838 112.704L86.7378 42.063C87.6075 38.9809 91.537 32.915 100.297 33.3081L126.974 34.5052L122.046 45.0004M122.046 45.0004L114.215 61.6799M122.046 45.0004C119.171 45.3188 116.495 45.758 114.145 46.256L114.215 61.6799M122.046 45.0004C140.372 42.9708 166.801 45.8423 168.355 69.6068C170.154 97.1003 157.764 111.516 151.344 115.287L182.227 98.3446C183.578 98.0065 185.033 97.7389 186.558 97.5672M114.215 61.6799L92.6492 107.61M114.215 61.6799L114.454 114.947M92.6492 107.61L92.3453 108.257C92.4421 108.046 92.5435 107.83 92.6492 107.61ZM92.6492 107.61C95.8427 100.944 103.009 90.0074 108.499 95.0361C114.17 100.231 114.197 110.296 114.454 114.947M114.454 114.947C129.086 120.77 138.17 136.817 143.095 152.744M186.558 97.5672C202.34 95.7906 225.608 104.287 218.548 151.348C215.129 174.141 210.472 193.086 205.813 207.953M186.558 97.5672C184.254 89.4478 181.733 80.7774 179.542 73.6948C174.943 58.8258 180.808 52.8998 184.315 51.7955C186.27 51.2191 193.825 47.9191 208.414 39.3299C223.003 30.7407 229.544 44.1296 230.991 51.8978L239.258 111.203M186.558 97.5672C189.092 106.493 191.364 114.754 192.648 119.506M145.651 240.117C148.29 220.981 147.459 195.703 147.789 179.675C147.592 172.367 146.136 162.578 143.095 152.744M145.651 240.117C164.459 278.139 183.478 258.766 190.637 244.327C194.031 239.029 199.923 226.75 205.813 207.953M145.651 240.117C131.459 209.066 114.299 158.424 143.095 152.744M143.095 152.744C143.095 152.744 161.626 150.565 181.535 175.984C190.592 187.547 197.696 198.171 205.813 207.953M205.813 207.953C224.329 230.266 239.615 238.386 249.348 237.064M274.344 109.148C245.61 179.906 246.219 165.804 227.145 137.589L251.501 189.085M274.344 109.148C275.2 107.041 276.082 104.857 276.991 102.597C276.122 104.613 275.238 106.808 274.344 109.148ZM274.344 109.148C265.16 133.198 255.029 172.541 251.501 189.085M251.501 189.085L254.293 194.988C265.223 217.928 261.91 235.359 249.348 237.064M251.501 189.085C247.966 205.661 247.698 219.351 249.348 237.064M249.348 237.064C249.737 257.815 297.869 281.927 346.071 199.106C394.273 116.286 342.902 91.9028 293.588 159.497L337.587 63.6539L292.009 39.0967C261.395 23.3791 237.108 27.2697 237.833 68.3417C238.352 97.7489 238.978 108.938 239.258 111.203M239.258 111.203C239.269 111.296 239.28 111.375 239.29 111.439L239.258 111.203ZM1200.56 182.618C1193.29 163.888 1190.36 104.824 1224.2 104.742C1228.87 104.73 1231.17 105.032 1234.96 106.545M1171.1 145.234C1195.14 213.343 1228.07 265.222 1253.62 258.295C1260.64 256.392 1264.26 245.861 1266.13 232.226M1171.1 145.234C1169.17 139.758 1167.29 134.177 1165.48 128.513C1167.47 133.726 1169.36 139.387 1171.1 145.234ZM1171.1 145.234C1179.92 174.92 1184.68 209.366 1177.01 213.969C1167.82 219.478 1152.95 175.094 1140.05 143.975C1132.16 119.749 1118.58 68.5952 1127.36 57.7869C1136.15 46.9786 1142.04 53.7778 1143.89 58.5284L1160.09 106.466C1152.7 79.9952 1141.84 26.833 1156.11 21.6689C1170.58 16.4368 1163.68 18.9811 1177.8 14.0403C1186.11 11.1325 1184.63 15.7069 1185.37 27.5829C1186.12 39.4589 1183.82 87.3798 1184.99 104.303L1207.26 33.366C1208.13 30.271 1212.06 24.1793 1220.82 24.5724L1247.49 25.7695L1242.56 36.3089M1242.56 36.3089L1234.73 53.0587M1242.56 36.3089C1239.69 36.6292 1237.01 37.0707 1234.66 37.5712L1234.73 53.0587M1242.56 36.3089C1260.89 34.2675 1287.32 37.146 1288.87 61.0082C1290.66 88.6148 1278.27 103.092 1271.85 106.88L1302.73 89.8619C1304.09 89.5222 1305.54 89.2532 1307.07 89.0805M1234.73 53.0587L1213.15 99.1818M1234.73 53.0587L1234.96 106.545M1213.15 99.1818L1212.85 99.8316C1212.95 99.6202 1213.05 99.4033 1213.15 99.1818ZM1213.15 99.1818C1216.35 92.4879 1223.52 81.505 1229.01 86.5535C1234.68 91.769 1234.7 101.875 1234.96 106.545M1234.96 106.545C1249.59 112.389 1258.67 128.501 1263.59 144.493M1307.07 89.0805C1322.85 87.2937 1346.12 95.821 1339.05 143.077C1335.62 165.965 1330.96 184.989 1326.3 199.918M1307.07 89.0805C1304.76 80.9281 1302.24 72.2224 1300.06 65.111C1295.46 50.1815 1301.32 44.23 1304.83 43.1205C1306.79 42.5414 1314.34 39.2263 1328.93 30.599C1343.52 21.9717 1350.06 35.4147 1351.51 43.2145L1359.76 102.763M1307.07 89.0805C1309.6 98.0431 1311.87 106.337 1313.15 111.109M1266.13 232.226C1268.78 213.01 1267.95 187.628 1268.28 171.534C1268.09 164.196 1266.63 154.367 1263.59 144.493M1266.13 232.226C1284.93 270.401 1303.96 250.945 1311.12 236.445C1314.51 231.124 1320.41 218.793 1326.3 199.918M1266.13 232.226C1251.95 201.049 1234.8 150.202 1263.59 144.493M1263.59 144.493C1263.59 144.493 1282.12 142.302 1302.03 167.822C1311.08 179.431 1318.19 190.097 1326.3 199.918M1326.3 199.918C1344.81 222.32 1360.1 230.47 1369.83 229.141M1394.85 100.693C1366.1 171.748 1366.72 157.588 1347.65 129.26L1371.99 180.964M1394.85 100.693C1395.71 98.5766 1396.59 96.3842 1397.5 94.1144C1396.63 96.1384 1395.74 98.3431 1394.85 100.693ZM1394.85 100.693C1385.66 124.844 1375.52 164.35 1371.99 180.964M1371.99 180.964L1374.78 186.89C1385.71 209.923 1382.39 227.427 1369.83 229.141M1371.99 180.964C1368.46 197.609 1368.18 211.355 1369.83 229.141M1369.83 229.141C1370.22 249.977 1418.34 274.18 1466.56 191.009C1514.78 107.838 1463.41 83.3639 1414.09 151.246L1458.1 54.9994L1412.53 30.3494C1381.92 14.5727 1357.63 18.4838 1358.35 59.725C1358.86 89.2534 1359.48 100.489 1359.76 102.763M1359.76 102.763C1359.78 102.857 1359.79 102.935 1359.8 103L1359.76 102.763ZM371.136 173.427C363.864 154.697 360.942 95.6323 394.779 95.5503C399.447 95.539 401.75 95.8409 405.537 97.3536M341.678 136.042C365.718 204.151 398.65 256.031 424.195 249.104C431.215 247.2 434.836 236.67 436.711 223.034M341.678 136.042C339.745 130.566 337.87 124.985 336.061 119.321C338.048 124.534 339.942 130.196 341.678 136.042ZM341.678 136.042C350.496 165.728 355.26 200.175 347.587 204.777C338.402 210.287 323.531 165.903 310.631 134.784C302.741 110.558 289.157 59.4038 297.941 48.5955C306.725 37.7872 312.617 44.5864 314.465 49.337L330.667 97.2745C323.277 70.8038 312.415 17.6416 326.692 12.4775C341.157 7.24539 334.26 9.78967 348.379 4.84886C356.689 1.94108 355.207 6.51549 355.95 18.3915C356.694 30.2675 354.398 78.1884 355.567 95.1113L377.834 24.1745C378.704 21.0796 382.635 14.9879 391.394 15.381L418.072 16.5781L413.142 27.1175M413.142 27.1175L405.307 43.8673M413.142 27.1175C410.266 27.4378 407.59 27.8793 405.241 28.3798L405.307 43.8673M413.142 27.1175C431.469 25.0761 457.897 27.9546 459.447 51.8168C461.24 79.4234 448.847 93.9006 442.427 97.6885L473.313 80.6705C474.664 80.3308 476.12 80.0618 477.645 79.8891M405.307 43.8673L383.733 89.9904M405.307 43.8673L405.537 97.3536M383.733 89.9904L383.429 90.6402C383.526 90.4288 383.627 90.2119 383.733 89.9904ZM383.733 89.9904C386.928 83.2965 394.096 72.3136 399.585 77.3621C405.256 82.5776 405.281 92.684 405.537 97.3536M405.537 97.3536C420.168 103.198 429.249 119.309 434.171 135.301M477.645 79.8891C493.427 78.1023 516.694 86.6296 509.625 133.886C506.202 156.773 501.541 175.797 496.879 190.727M477.645 79.8891C475.342 71.7367 472.823 63.031 470.633 55.9196C466.037 40.9901 471.903 35.0386 475.41 33.9291C477.365 33.35 484.921 30.0349 499.512 21.4076C514.102 12.7803 520.641 26.2232 522.086 34.0231L530.342 93.5712M477.645 79.8891C480.177 88.8517 482.447 97.1456 483.73 101.917M436.711 223.034C439.353 203.819 438.527 178.436 438.86 162.343C438.665 155.005 437.211 145.176 434.171 135.301M436.711 223.034C455.512 261.21 474.535 241.754 481.697 227.254C485.091 221.933 490.986 209.602 496.879 190.727M436.711 223.034C422.524 191.858 405.373 141.011 434.171 135.301M434.171 135.301C434.171 135.301 452.702 133.11 472.607 158.631C481.662 170.24 488.764 180.906 496.879 190.727M496.879 190.727C515.391 213.128 530.676 221.279 540.409 219.95M565.429 91.5019C536.682 162.557 537.294 148.396 518.225 120.069L542.571 171.772M565.429 91.5019C566.285 89.3852 567.168 87.1928 568.078 84.923C567.208 86.947 566.323 89.1517 565.429 91.5019ZM565.429 91.5019C556.24 115.653 546.102 155.159 542.571 171.772M542.571 171.772L545.362 177.699C556.288 200.732 552.972 218.235 540.409 219.95M542.571 171.772C539.034 188.417 538.762 202.163 540.409 219.95M540.409 219.95C540.795 240.786 588.923 264.988 637.14 181.817C685.358 98.6465 633.991 74.1725 584.664 142.054L628.681 45.808L583.108 21.158C552.496 5.3813 528.208 9.29235 528.925 50.5336C529.439 80.062 530.063 91.2973 530.342 93.5712M530.342 93.5712C530.354 93.6653 530.365 93.7441 530.375 93.8082L530.342 93.5712ZM610.535 214.505C603.259 195.85 600.327 137.028 634.163 136.952C638.83 136.942 641.134 137.243 644.921 138.75M581.07 177.268C605.122 245.102 638.063 296.774 663.607 289.881C670.627 287.986 674.246 277.5 676.118 263.921M581.07 177.268C579.136 171.814 577.26 166.256 575.449 160.615C577.437 165.807 579.332 171.446 581.07 177.268ZM581.07 177.268C589.893 206.834 594.663 241.14 586.991 245.722C577.808 251.207 562.928 207.003 550.022 176.009C542.128 151.881 528.535 100.935 537.317 90.1727C546.098 79.4104 551.992 86.1827 553.841 90.9142L570.051 138.658C562.656 112.294 551.785 59.3486 566.061 54.2083C580.525 49.0003 573.628 51.5329 587.747 46.615C596.055 43.7207 594.574 48.276 595.32 60.1034C596.066 71.9307 593.779 119.654 594.951 136.508L617.205 65.8667C618.074 62.7846 622.004 56.7187 630.764 57.1118L657.441 58.3089L652.513 68.8041M652.513 68.8041L644.682 85.4837M652.513 68.8041C649.638 69.1226 646.961 69.5617 644.612 70.0598L644.682 85.4837M652.513 68.8041C670.839 66.7745 697.267 69.646 698.822 93.4105C700.62 120.904 688.23 135.32 681.811 139.091L712.693 122.148C714.045 121.81 715.5 121.543 717.025 121.371M644.682 85.4837L623.116 131.413M644.682 85.4837L644.921 138.75M623.116 131.413L622.812 132.06C622.909 131.85 623.01 131.634 623.116 131.413ZM623.116 131.413C626.31 124.748 633.475 113.811 638.965 118.84C644.637 124.035 644.664 134.1 644.921 138.75M644.921 138.75C659.553 144.573 668.636 160.62 673.562 176.547M717.025 121.371C732.807 119.594 756.075 128.091 749.015 175.152C745.596 197.945 740.938 216.889 736.28 231.757M717.025 121.371C714.721 113.252 712.2 104.581 710.009 97.4985C705.41 82.6295 711.275 76.7035 714.782 75.5992C716.736 75.0228 724.292 71.7228 738.881 63.1336C753.47 54.5444 760.011 67.9333 761.457 75.7015L769.724 135.006M717.025 121.371C719.559 130.297 721.83 138.557 723.114 143.31M676.118 263.921C678.757 244.784 677.926 219.506 678.256 203.479C678.059 196.171 676.603 186.382 673.562 176.547M676.118 263.921C694.926 301.943 713.945 282.57 721.104 268.131C724.498 262.833 730.39 250.553 736.28 231.757M676.118 263.921C661.925 232.87 644.765 182.228 673.562 176.547M673.562 176.547C673.562 176.547 692.093 174.369 712.002 199.788C721.059 211.351 728.162 221.975 736.28 231.757M736.28 231.757C754.796 254.07 770.082 262.19 779.815 260.868M804.811 132.952C776.077 203.71 776.686 189.608 757.612 161.393L781.968 212.889M804.811 132.952C805.667 130.844 806.549 128.661 807.458 126.401C806.589 128.416 805.704 130.612 804.811 132.952ZM804.811 132.952C795.626 157.002 785.496 196.344 781.968 212.889M781.968 212.889L784.76 218.792C795.689 241.732 792.377 259.163 779.815 260.868M781.968 212.889C778.433 229.465 778.165 243.154 779.815 260.868M779.815 260.868C780.204 281.619 828.336 305.73 876.538 222.91C924.74 140.09 873.369 115.707 824.055 183.301L868.054 87.4576L822.476 62.9004C791.862 47.1829 767.575 51.0734 768.3 92.1454C768.819 121.553 769.445 132.742 769.724 135.006M769.724 135.006C769.736 135.1 769.747 135.179 769.757 135.242L769.724 135.006ZM893.388 196.862C886.139 178.133 883.232 119.069 916.976 118.983C921.631 118.971 923.928 119.273 927.704 120.785M864.016 159.481C887.981 227.587 920.817 279.462 946.292 272.532C953.294 270.628 956.906 260.097 958.777 246.461M864.016 159.481C862.089 154.006 860.22 148.425 858.416 142.761C860.397 147.974 862.285 153.635 864.016 159.481ZM864.016 159.481C872.806 189.166 877.552 223.612 869.899 228.215C860.74 233.726 845.914 189.344 833.053 158.227C825.188 134.002 811.648 82.8499 820.409 72.0405C829.17 61.2312 835.045 68.0296 836.888 72.78L853.039 120.715C845.673 94.2456 834.847 41.085 849.086 35.9192C863.512 30.6853 856.633 33.2304 870.714 28.2879C879.001 25.3791 877.523 29.9537 878.263 41.8295C879.004 53.7054 876.707 101.626 877.871 118.549L900.086 47.6099C900.954 44.5148 904.875 38.4227 913.611 38.8147L940.215 40.0085L935.297 50.5484M935.297 50.5484L927.482 67.2991M935.297 50.5484C932.429 50.8691 929.76 51.3109 927.417 51.8117L927.482 67.2991M935.297 50.5484C953.574 48.5048 979.929 51.3801 981.472 75.242C983.257 102.848 970.896 117.327 964.493 121.115L995.296 104.094C996.644 103.754 998.096 103.485 999.617 103.312M927.482 67.2991L905.961 113.425M927.482 67.2991L927.704 120.785M905.961 113.425L905.658 114.074C905.754 113.863 905.856 113.646 905.961 113.425ZM905.961 113.425C909.148 106.73 916.298 95.7467 921.771 100.794C927.425 106.009 927.45 116.116 927.704 120.785M927.704 120.785C942.294 126.627 951.348 142.738 956.255 158.729M999.617 103.312C1015.36 101.523 1038.56 110.047 1031.5 157.305C1028.09 180.192 1023.44 199.216 1018.78 214.146M999.617 103.312C997.321 95.1598 994.81 86.4544 992.627 79.3433C988.045 64.4145 993.896 58.4623 997.394 57.3523C999.343 56.773 1006.88 53.457 1021.43 44.828C1035.98 36.1989 1042.5 49.641 1043.94 57.4407L1052.17 116.987M999.617 103.312C1002.14 112.274 1004.4 120.568 1005.68 125.339M958.777 246.461C961.415 227.245 960.594 201.864 960.928 185.77C960.734 178.432 959.285 168.603 956.255 158.729M958.777 246.461C977.522 284.634 996.496 265.176 1003.64 250.675C1007.03 245.354 1012.9 233.022 1018.78 214.146M958.777 246.461C944.633 215.287 927.536 164.442 956.255 158.729M956.255 158.729C956.255 158.729 974.736 156.536 994.583 182.054C1003.61 193.661 1010.69 204.327 1018.78 214.146M1018.78 214.146C1037.24 236.546 1052.48 244.694 1062.19 243.364M1087.16 114.914C1058.48 185.972 1059.09 171.811 1040.08 143.486L1064.35 195.187M1087.16 114.914C1088.01 112.797 1088.89 110.605 1089.8 108.335C1088.93 110.359 1088.05 112.564 1087.16 114.914ZM1087.16 114.914C1077.99 139.066 1067.88 178.573 1064.35 195.187M1064.35 195.187L1067.14 201.113C1078.03 224.144 1074.72 241.648 1062.19 243.364M1064.35 195.187C1060.82 211.832 1060.55 225.578 1062.19 243.364M1062.19 243.364C1062.57 264.2 1110.57 288.396 1158.66 205.22C1206.76 122.044 1155.54 97.576 1106.34 165.464L1150.24 69.2123L1104.8 44.5681C1074.27 28.7952 1050.05 32.7093 1050.76 73.9502C1051.27 103.478 1051.89 114.713 1052.17 116.987M1052.17 116.987C1052.18 117.081 1052.19 117.16 1052.2 117.224L1052.17 116.987Z" stroke="#303030" stroke-width="8" stroke-linecap="round"/>
</svg>
