<svg width="176" height="66" viewBox="0 0 176 66" fill="none" xmlns="http://www.w3.org/2000/svg">
<path fill-rule="evenodd" clip-rule="evenodd" d="M135.188 37.1186V49.8032C141.703 49.8032 144.188 46.5093 144.188 43.6331C144.188 40.757 144.056 37.1186 135.188 37.1186ZM137.188 47.2495V39.7756C140.717 39.7756 142.188 41.0541 142.188 43.6331C142.188 45.6964 139.188 47.2495 137.188 47.2495Z" fill="white"/>
<path d="M147.154 37.2906V49.9753H155.688V48H149.188L149.221 44.0016L155.688 44L155.654 42.5261L149.221 42.5277V39.1583H155.654L155.688 37.2906H147.154Z" fill="white"/>
<path d="M161.013 45.7089C161.729 45.0065 161.965 44.7682 162.688 44L161.013 37.2906L158.688 37.2645L161.013 45.7089Z" fill="white"/>
<path d="M168.688 37.2906C168.138 37.9368 167.659 38.5444 167.112 39.1583C166.56 39.7775 165.737 40.3905 165.188 41L163.688 47.1596L162.688 44C161.965 44.7682 161.729 45.0065 161.013 45.7089L162.188 49.9753H165.188L168.688 37.2906Z" fill="white"/>
<path d="M167.112 39.1583C167.659 38.5444 168.138 37.9368 168.688 37.2906H166.188L165.188 41C165.737 40.3905 166.56 39.7775 167.112 39.1583Z" fill="white"/>
<path d="M152.139 24.786C153.169 24.3724 154.185 24.0051 155.182 23.6825C158.387 20.6962 162.28 17.6339 163.172 16.5C164.747 14.5 163.172 11.294 159.09 12.5C156.636 13.2248 153.94 19.4846 152.139 24.786Z" fill="white"/>
<path d="M155.182 23.6825C154.185 24.0051 153.169 24.3724 152.139 24.786C151.683 26.13 151.284 27.4124 150.962 28.5274C151.598 27.2247 153.267 25.4672 155.182 23.6825Z" fill="white"/>
<path d="M161.505 22.1739C160.323 23.6811 159.338 25.514 158.732 26.8986C159.846 24.5273 165.477 25.4931 166.688 25C167.55 24.6488 169.46 23.6378 169.08 22.1026C166.962 21.7408 164.384 21.7449 161.505 22.1739Z" fill="white"/>
<path d="M161.505 22.1739C164.384 21.7449 166.962 21.7408 169.08 22.1026C168.92 21.4523 168.348 20.708 167.112 19.8799C165.193 18.5949 163.157 20.0657 161.505 22.1739Z" fill="white"/>
<path d="M13.2669 37.9431C12.7574 37.2928 12.2526 36.6554 11.7546 36.0384C11.1475 35.1021 10.4709 34.0098 9.77131 32.819C7.07731 32.2992 4.49301 32.6534 2.68778 34.7159C-1.71222 39.7432 3.52112 40.6667 6.68778 40.5C8.26427 39.6944 10.7713 38.6163 13.2669 37.9431Z" fill="white"/>
<path d="M11.7546 36.0384C12.2526 36.6554 12.7574 37.2928 13.2669 37.9431C15.9346 37.2236 18.5891 36.9667 20.0802 38C17.7425 36.1192 13.6436 33.5662 9.77131 32.819C10.4709 34.0098 11.1475 35.1021 11.7546 36.0384Z" fill="white"/>
<path d="M16.2941 41.8512C12.4842 42.2121 8.62816 43.4223 9.18774 46.5C9.98774 50.9 13.1877 49.6667 14.6877 48.5C15.513 47.3377 16.8396 45.5727 18.0776 44.1426C17.4846 43.3885 16.889 42.6209 16.2941 41.8512Z" fill="white"/>
<path d="M16.2941 41.8512C16.889 42.6209 17.4846 43.3885 18.0776 44.1426C19.2271 42.8147 20.3003 41.7754 20.8252 41.7754C19.5592 41.6978 17.9309 41.6961 16.2941 41.8512Z" fill="white"/>
<path d="M25.8648 36.0029C38.1565 53.6393 54.1521 66.9004 65.5994 64.7763C68.7454 64.1925 70.1736 61.3791 70.7466 57.7694C63.6761 49.734 54.8607 36.5581 67.8084 34.7159C65.2498 30.5664 60.8022 26.4345 54.0462 25.0696C53.8351 23.844 53.6178 21.1852 50.9392 19.8799C48.3463 18.6164 45.3182 21.5908 44.0052 23.3897L43.8805 23.5643C43.9201 23.5075 43.9617 23.4493 44.0052 23.3897L52.8532 10.9996L52.5078 6.92545C53.5484 6.76828 54.6804 6.72598 55.8655 6.7814L58.0883 3.66881H45.9619C41.9801 3.66881 40.321 5.318 39.9892 6.14259L31.3319 25.0696C30.4571 20.6309 30.5234 7.99529 29.9442 4.87938C29.365 1.76348 29.9442 0.542398 26.2339 1.40557C19.9294 2.87224 23.0063 2.1214 16.5509 3.66881C10.1794 5.19609 16.1889 19.0553 20.0802 25.9328L11.7546 13.5113C10.8195 12.2831 8.0081 10.5638 4.24349 13.5113C1.0401 16.0193 5.77834 26.0225 9.77131 32.819C13.6436 33.5662 17.7425 36.1192 20.0802 38C18.5891 36.9667 15.9346 37.2236 13.2669 37.9431C14.2633 39.2149 15.2778 40.5362 16.2941 41.8512C17.9309 41.6961 19.5592 41.6978 20.8252 41.7754C20.3003 41.7754 19.2271 42.8147 18.0776 44.1426C22.7004 50.0216 27.1664 55.0855 29.9442 54.0181C33.3313 52.7165 30.4692 43.7096 25.8648 36.0029C24.8765 34.5849 23.9122 33.1387 22.9761 31.6698C23.9836 33.0179 24.958 34.4852 25.8648 36.0029Z" fill="black"/>
<path d="M70.4862 41.7754C70.6626 46.0138 71.554 52.6824 70.7466 57.7694C80.0526 67.5918 88.2863 62.2481 91.2399 58.3484C92.6715 56.9084 95.0944 53.5944 97.3837 48.5586C93.5022 46.0704 90.0634 43.3478 85.7196 40.4004C76.1704 33.9207 67.8084 34.7159 67.8084 34.7159C69.3882 37.2781 70.2479 39.847 70.4862 41.7754Z" fill="black"/>
<path fill-rule="evenodd" clip-rule="evenodd" d="M70.6877 25.5C76.0876 21.2778 76.5 18.4526 75.1877 15.5C73.4552 11.6017 63.5445 7.14046 55.8655 6.7814L52.8532 10.9996L54.0462 25.0696C60.8022 26.4345 65.2498 30.5664 67.8084 34.7159C67.8084 34.7159 76.1704 33.9207 85.7196 40.4004C90.0634 43.3478 93.5022 46.0704 97.3837 48.5586C99.1945 44.5754 100.922 39.5151 102.009 33.4527C104.253 20.9356 93.5252 18.9667 86.402 19.6232C85.7136 19.6866 85.0588 19.7746 84.4527 19.8799L70.6877 25.5ZM70.1877 22.5C68.8544 22 65.9877 19.3 67.1877 18.5C68.3877 17.7 69.8544 21.3333 70.1877 22.5ZM74.1877 27C76.0211 30.0947 79.8877 36.1272 80.6877 35.5C81.4877 34.8728 77.1877 28.5 74.1877 27Z" fill="black"/>
<path fill-rule="evenodd" clip-rule="evenodd" d="M102.009 33.4527C100.922 39.5151 99.1945 44.5754 97.3837 48.5586C106.238 54.2341 113.337 56.1981 117.726 55.7335C116.617 51.0732 116.46 47.4533 117.726 43.032L105.629 29.7158C114.856 36.9439 114.867 40.6769 126.461 21.6422C126.819 21.0133 127.175 20.4228 127.529 19.8799C127.162 20.4879 126.806 21.0751 126.461 21.6422C122.784 28.105 118.989 38.6192 117.726 43.032L119.112 44.5584C124.538 50.4895 123.39 55.134 117.726 55.7335C118.814 60.7202 135.134 66.0028 155.688 49.9753H147.154V37.2906H155.688L155.654 39.1583H149.221V42.5277L155.654 42.5261L155.688 44L149.221 44.0016L149.188 48H155.688V49.9753C156.799 49.1087 157.956 48.4943 159.09 47.5C159.728 46.9408 160.369 46.3407 161.013 45.7089L158.688 37.2645L161.013 37.2906L162.688 44C163.447 43.1935 164.422 41.8505 165.188 41L166.188 37.2906H168.688C170.199 35.5142 171.793 33.5883 173.319 31.5579C177.067 26.5733 174.68 23.0591 169.08 22.1026C169.46 23.6378 167.55 24.6488 166.688 25C165.477 25.4931 159.846 24.5273 158.732 26.8986C158.717 26.9327 158.702 26.9665 158.688 27C158.702 26.9655 158.716 26.9317 158.732 26.8986C159.338 25.514 160.323 23.6811 161.505 22.1739C159.523 22.4692 157.398 22.9657 155.182 23.6825C153.267 25.4672 151.598 27.2247 150.962 28.5274C150.863 28.8683 150.772 29.1935 150.688 29.5C150.688 29.2172 150.785 28.8899 150.962 28.5274C151.284 27.4124 151.683 26.13 152.139 24.786C146.981 26.8583 141.476 30.095 136.216 34.7159L154.225 8.87288L133.049 2.9253C118.841 -0.864281 107.902 0.451522 109.067 11.294C109.902 19.0571 110.413 22.0059 110.586 22.6009L110.606 22.6629C110.6 22.6461 110.593 22.6255 110.586 22.6009L105.629 7.03071C104.814 4.99555 101.574 1.53577 95.1312 3.97797C88.6879 6.42016 85.3275 7.3816 84.4527 7.55705C82.8841 7.89039 80.3442 9.52554 82.7333 13.3994C83.8713 15.2446 85.1913 17.5054 86.402 19.6232C93.5252 18.9667 104.253 20.9356 102.009 33.4527ZM135.188 49.8032V37.1186C144.056 37.1186 144.188 40.757 144.188 43.6331C144.188 46.5093 141.703 49.8032 135.188 49.8032Z" fill="black"/>
<path d="M137.188 39.7756V47.2495C139.188 47.2495 142.188 45.6964 142.188 43.6331C142.188 41.0541 140.717 39.7756 137.188 39.7756Z" fill="black"/>
<path d="M70.7466 57.7694C71.554 52.6824 70.6626 46.0138 70.4862 41.7754C70.2479 39.847 69.3882 37.2781 67.8084 34.7159C54.8607 36.5581 63.6761 49.734 70.7466 57.7694Z" fill="black"/>
<path d="M39.9892 45.4914C36.3091 40.6492 33.7812 25.1433 49.1292 24.7222C51.2465 24.6641 52.2975 24.7163 54.0462 25.0696M45.9619 3.66881C41.9801 3.66881 40.321 5.318 39.9892 6.14259L31.3319 25.0696C30.4571 20.6309 30.5234 7.99529 29.9442 4.87938C29.365 1.76348 29.9442 0.542398 26.2339 1.40557C19.9294 2.87224 23.0063 2.1214 16.5509 3.66881C10.1794 5.19609 16.1889 19.0553 20.0802 25.9328L11.7546 13.5113C10.8195 12.2831 8.0081 10.5638 4.24349 13.5113C1.0401 16.0193 5.77834 26.0225 9.77131 32.819M45.9619 3.66881C49.9437 3.66881 55.7053 3.66881 58.0883 3.66881M45.9619 3.66881H58.0883M58.0883 3.66881L55.8655 6.7814M54.0462 25.0696C53.8351 23.844 53.6178 21.1852 50.9392 19.8799C48.3463 18.6164 45.3182 21.5908 44.0052 23.3897M54.0462 25.0696C60.8022 26.4345 65.2498 30.5664 67.8084 34.7159M54.0462 25.0696L52.8532 10.9996M70.7466 57.7694C71.554 52.6824 70.6626 46.0138 70.4862 41.7754C70.2479 39.847 69.3882 37.2781 67.8084 34.7159M70.7466 57.7694C70.1736 61.3791 68.7454 64.1925 65.5994 64.7763C54.1521 66.9004 38.1565 53.6393 25.8648 36.0029M70.7466 57.7694C80.0526 67.5918 88.2863 62.2481 91.2399 58.3484C92.6715 56.9084 95.0944 53.5944 97.3837 48.5586M70.7466 57.7694C63.6761 49.734 54.8607 36.5581 67.8084 34.7159M67.8084 34.7159C67.8084 34.7159 76.1704 33.9207 85.7196 40.4004C90.0634 43.3478 93.5022 46.0704 97.3837 48.5586M97.3837 48.5586C99.1945 44.5754 100.922 39.5151 102.009 33.4527C104.253 20.9356 93.5252 18.9667 86.402 19.6232M97.3837 48.5586C106.238 54.2341 113.337 56.1981 117.726 55.7335M117.726 43.032L119.112 44.5584C124.538 50.4895 123.39 55.134 117.726 55.7335M117.726 43.032L105.629 29.7158C114.856 36.9439 114.867 40.6769 126.461 21.6422M117.726 43.032C116.46 47.4533 116.617 51.0732 117.726 55.7335M117.726 43.032C118.989 38.6192 122.784 28.105 126.461 21.6422M117.726 55.7335C118.814 60.7202 135.134 66.0028 155.688 49.9753M89.6109 25.3472C88.9317 24.1069 87.7329 21.9515 86.402 19.6232M155.688 49.9753V48H149.188L149.221 44.0016L155.688 44L155.654 42.5261L149.221 42.5277V39.1583H155.654L155.688 37.2906H147.154V49.9753H155.688ZM155.688 49.9753C156.799 49.1087 157.956 48.4943 159.09 47.5C159.728 46.9408 160.369 46.3407 161.013 45.7089M168.688 37.2906C170.199 35.5142 171.793 33.5883 173.319 31.5579C177.067 26.5733 174.68 23.0591 169.08 22.1026M168.688 37.2906L165.188 49.9753H162.188L161.013 45.7089M168.688 37.2906C168.138 37.9368 167.659 38.5444 167.112 39.1583C166.56 39.7775 165.737 40.3905 165.188 41M168.688 37.2906H166.188L165.188 41M161.013 45.7089C161.729 45.0065 161.965 44.7682 162.688 44M161.013 45.7089L158.688 37.2645L161.013 37.2906L162.688 44M162.688 44L163.688 47.1596L165.188 41M162.688 44C163.447 43.1935 164.422 41.8505 165.188 41M152.139 24.786C153.169 24.3724 154.185 24.0051 155.182 23.6825M152.139 24.786C153.94 19.4846 156.636 13.2248 159.09 12.5C163.172 11.294 164.747 14.5 163.172 16.5C162.28 17.6339 158.387 20.6962 155.182 23.6825M152.139 24.786C146.981 26.8583 141.476 30.095 136.216 34.7159L154.225 8.87288L133.049 2.9253C118.841 -0.864281 107.902 0.451522 109.067 11.294C109.902 19.0571 110.413 22.0059 110.586 22.6009M152.139 24.786C151.683 26.13 151.284 27.4124 150.962 28.5274M155.182 23.6825C153.267 25.4672 151.598 27.2247 150.962 28.5274M155.182 23.6825C157.398 22.9657 159.523 22.4692 161.505 22.1739M150.962 28.5274C150.785 28.8899 150.688 29.2172 150.688 29.5C150.772 29.1935 150.863 28.8683 150.962 28.5274ZM161.505 22.1739C160.323 23.6811 159.338 25.514 158.732 26.8986M161.505 22.1739C164.384 21.7449 166.962 21.7408 169.08 22.1026M161.505 22.1739C163.157 20.0657 165.193 18.5949 167.112 19.8799C168.348 20.708 168.92 21.4523 169.08 22.1026M158.732 26.8986C159.846 24.5273 165.477 25.4931 166.688 25C167.55 24.6488 169.46 23.6378 169.08 22.1026M158.732 26.8986C158.716 26.9317 158.702 26.9655 158.688 27C158.702 26.9665 158.717 26.9327 158.732 26.8986ZM13.2669 37.9431C12.7574 37.2928 12.2526 36.6554 11.7546 36.0384C11.1475 35.1021 10.4709 34.0098 9.77131 32.819M13.2669 37.9431C10.7713 38.6163 8.26427 39.6944 6.68778 40.5C3.52112 40.6667 -1.71222 39.7432 2.68778 34.7159C4.49301 32.6534 7.07731 32.2992 9.77131 32.819M13.2669 37.9431C15.9346 37.2236 18.5891 36.9667 20.0802 38C17.7425 36.1192 13.6436 33.5662 9.77131 32.819M13.2669 37.9431C14.2633 39.2149 15.2778 40.5362 16.2941 41.8512M16.2941 41.8512C12.4842 42.2121 8.62816 43.4223 9.18774 46.5C9.98774 50.9 13.1877 49.6667 14.6877 48.5C15.513 47.3377 16.8396 45.5727 18.0776 44.1426M16.2941 41.8512C16.889 42.6209 17.4846 43.3885 18.0776 44.1426M16.2941 41.8512C17.9309 41.6961 19.5592 41.6978 20.8252 41.7754C20.3003 41.7754 19.2271 42.8147 18.0776 44.1426M18.0776 44.1426C22.7004 50.0216 27.1664 55.0855 29.9442 54.0181C33.3313 52.7165 30.4692 43.7096 25.8648 36.0029M25.8648 36.0029C24.8765 34.5849 23.9122 33.1387 22.9761 31.6698C23.9836 33.0179 24.958 34.4852 25.8648 36.0029ZM44.0052 23.3897L43.8805 23.5643C43.9201 23.5075 43.9617 23.4493 44.0052 23.3897ZM44.0052 23.3897L52.8532 10.9996M52.8532 10.9996L52.5078 6.92545C53.5484 6.76828 54.6804 6.72598 55.8655 6.7814M52.8532 10.9996L55.8655 6.7814M55.8655 6.7814C63.5445 7.14046 73.4552 11.6017 75.1877 15.5C76.5 18.4526 76.0876 21.2778 70.6877 25.5L84.4527 19.8799C85.0588 19.7746 85.7136 19.6866 86.402 19.6232M86.402 19.6232C85.1913 17.5054 83.8713 15.2446 82.7333 13.3994C80.3442 9.52554 82.8841 7.89039 84.4527 7.55705C85.3275 7.3816 88.6879 6.42016 95.1312 3.97797C101.574 1.53577 104.814 4.99555 105.629 7.03071L110.586 22.6009M126.461 21.6422C126.819 21.0133 127.175 20.4228 127.529 19.8799C127.162 20.4879 126.806 21.0751 126.461 21.6422ZM110.586 22.6009L110.606 22.6629C110.6 22.6461 110.593 22.6255 110.586 22.6009ZM137.188 39.7756V47.2495C139.188 47.2495 142.188 45.6964 142.188 43.6331C142.188 41.0541 140.717 39.7756 137.188 39.7756ZM135.188 37.1186V49.8032C141.703 49.8032 144.188 46.5093 144.188 43.6331C144.188 40.757 144.056 37.1186 135.188 37.1186ZM70.1877 22.5C68.8544 22 65.9877 19.3 67.1877 18.5C68.3877 17.7 69.8544 21.3333 70.1877 22.5ZM74.1877 27C76.0211 30.0947 79.8877 36.1272 80.6877 35.5C81.4877 34.8728 77.1877 28.5 74.1877 27Z" stroke="white" stroke-linecap="round"/>
</svg>
