<svg width="161" height="34" viewBox="0 0 161 34" fill="none" xmlns="http://www.w3.org/2000/svg">
<path d="M45.074 10.6986C36.9917 6.86454 23.4007 2.9032 7.34919 17.7306C-8.7023 32.558 9.43039 32.347 20.5032 30.3881C27.656 29.1227 56.6312 20.3425 74.8164 0C71.574 4.7551 66.49 10.333 61.4531 16.6256M47.4173 30.3881C50.3033 29.6475 55.849 23.6268 61.4531 16.6256M77.726 8.08676C74.7153 11.8706 72.7554 14.0137 61.4531 16.6256M61.4531 16.6256C68.211 14.5662 79.1958 13.7688 67.8218 26.0183C71.0492 26.0183 73.5088 24.75 77.726 21.2143M93.8405 0C90.1186 4.48938 87.7262 8.89655 81.6661 15.9726M81.6661 15.9726C83.461 12.9087 91.4134 9.05114 93.5472 12.9087C93.7399 13.2571 93.8335 13.627 93.8405 14.0137M81.6661 15.9726C79.1958 18.8571 79.1958 18.9291 77.726 21.2143M77.726 21.2143C73.2646 28.1511 76.6753 27.8644 80.3932 26.0183C85.1905 23.5052 93.9105 17.9081 93.8405 14.0137M93.8405 14.0137C98.0465 11.0335 105.671 6.64018 102.519 12.9087C102.057 13.8964 101.367 15.2226 100.528 16.6256M93.5472 24.2603C96.2567 21.8036 98.6504 19.765 100.528 16.6256M100.528 16.6256C104.99 13.5449 114.012 8.04658 114.4 10.6986C114.787 13.3507 109.175 20.8448 105.498 24.2603C111.822 19.3714 124.353 9.55343 130.463 9.39269C136.573 9.23196 132.553 14.1476 128.957 16.6256L119.715 24.2603C134.881 24.9267 164.074 23.8104 159.524 14.0137C154.975 4.21703 145.781 11.2377 141.752 15.9726M108.035 31.6941C104.883 29.2161 91.9832 26.0082 65.6025 33" stroke="white" stroke-width="2"/>
</svg>
